<?xml version="1.0" encoding="UTF-8"?>
<svg xmlns="http://www.w3.org/2000/svg" width="1680" height="988" viewBox="0 0 1680 988">
<defs>
  <marker id="arrow" markerWidth="10" markerHeight="10" refX="9" refY="3" orient="auto" markerUnits="strokeWidth">
    <path d="M0,0 L0,6 L9,3 z" fill="#64748b"/>
  </marker>
  <style>
    .title { font: 700 26px "Times New Roman", serif; fill: #111827; }
    .boundary { fill: #f8fafc; stroke: #334155; stroke-width: 2; }
    .boundary-title { font: 700 18px "Times New Roman", serif; fill: #334155; }
    .usecase { fill: #ffffff; stroke: #2563eb; stroke-width: 2; }
    .usecase-label { font: 15px "Times New Roman", serif; fill: #111827; }
    .actor { fill: none; stroke: #111827; stroke-width: 2.3; stroke-linecap: round; }
    .actor-label { font: 15px "Times New Roman", serif; fill: #111827; }
    .external-box { fill: #fff7ed; stroke: #c2410c; stroke-width: 2; }
    .external-icon { font: 700 18px "Times New Roman", serif; fill: #9a3412; }
    .assoc { stroke: #475569; stroke-width: 1.5; }
    .include { stroke: #64748b; stroke-width: 1.3; stroke-dasharray: 8 5; }
    .extend { stroke: #9333ea; stroke-width: 1.3; stroke-dasharray: 7 5; }
    .rel-label { font: italic 13px "Times New Roman", serif; fill: #475569; paint-order: stroke; stroke: white; stroke-width: 4px; }
    .note { font: 14px "Times New Roman", serif; fill: #475569; }
  </style>
</defs>
<text x="840.0" y="44" text-anchor="middle" class="title">Biểu đồ Use Case tổng quát hệ thống ChatDesk</text>
<rect x="310" y="88" width="1060" height="780" rx="12" class="boundary"/>
<text x="330" y="122" class="boundary-title">ChatDesk CRM đa kênh</text>
<line x1="120.0" y1="162.0" x2="1171.0" y2="629.0" class="assoc"/><line x1="120.0" y1="162.0" x2="509.0" y2="213.0" class="assoc"/><line x1="120.0" y1="425.0" x2="509.0" y2="213.0" class="assoc"/><line x1="120.0" y1="425.0" x2="840.0" y2="213.0" class="assoc"/><line x1="120.0" y1="425.0" x2="1171.0" y2="213.0" class="assoc"/><line x1="120.0" y1="425.0" x2="509.0" y2="317.0" class="assoc"/><line x1="120.0" y1="425.0" x2="840.0" y2="317.0" class="assoc"/><line x1="120.0" y1="425.0" x2="1171.0" y2="317.0" class="assoc"/><line x1="120.0" y1="425.0" x2="509.0" y2="421.0" class="assoc"/><line x1="120.0" y1="425.0" x2="840.0" y2="421.0" class="assoc"/><line x1="120.0" y1="425.0" x2="1171.0" y2="421.0" class="assoc"/><line x1="120.0" y1="425.0" x2="509.0" y2="525.0" class="assoc"/><line x1="120.0" y1="425.0" x2="840.0" y2="525.0" class="assoc"/><line x1="120.0" y1="425.0" x2="1171.0" y2="525.0" class="assoc"/><line x1="120.0" y1="425.0" x2="509.0" y2="629.0" class="assoc"/><line x1="120.0" y1="425.0" x2="840.0" y2="629.0" class="assoc"/><line x1="120.0" y1="688.0" x2="509.0" y2="213.0" class="assoc"/><line x1="120.0" y1="688.0" x2="1171.0" y2="317.0" class="assoc"/><line x1="120.0" y1="688.0" x2="509.0" y2="421.0" class="assoc"/><line x1="120.0" y1="688.0" x2="1171.0" y2="421.0" class="assoc"/><line x1="120.0" y1="688.0" x2="1171.0" y2="525.0" class="assoc"/><line x1="120.0" y1="688.0" x2="509.0" y2="629.0" class="assoc"/><line x1="1560.0" y1="162.0" x2="1171.0" y2="317.0" class="assoc"/><line x1="1560.0" y1="162.0" x2="509.0" y2="421.0" class="assoc"/><line x1="1560.0" y1="425.0" x2="1171.0" y2="213.0" class="assoc"/><line x1="1560.0" y1="425.0" x2="1171.0" y2="317.0" class="assoc"/><line x1="1560.0" y1="425.0" x2="509.0" y2="421.0" class="assoc"/><line x1="1560.0" y1="688.0" x2="840.0" y2="421.0" class="assoc"/><line x1="1560.0" y1="688.0" x2="1171.0" y2="421.0" class="assoc"/><line x1="1560.0" y1="688.0" x2="840.0" y2="317.0" class="assoc"/><line x1="840.0" y1="421.0" x2="840.0" y2="317.0" class="include" marker-end="url(#arrow)"/>
<text x="840.0" y="363.0" text-anchor="middle" class="rel-label">&lt;&lt;include&gt;&gt;</text><line x1="1171.0" y1="317.0" x2="509.0" y2="421.0" class="include" marker-end="url(#arrow)"/>
<text x="840.0" y="363.0" text-anchor="middle" class="rel-label">&lt;&lt;include&gt;&gt;</text><line x1="840.0" y1="525.0" x2="1171.0" y2="525.0" class="extend" marker-end="url(#arrow)"/>
<text x="1005.5" y="519.0" text-anchor="middle" class="rel-label">&lt;&lt;extend&gt;&gt;</text>
<circle cx="120" cy="126" r="16" class="actor"/>
<line x1="120" y1="142" x2="120" y2="178" class="actor"/>
<line x1="90" y1="156" x2="150" y2="156" class="actor"/>
<line x1="120" y1="178" x2="94" y2="214" class="actor"/>
<line x1="120" y1="178" x2="146" y2="214" class="actor"/>
<text x="120" y="194" text-anchor="middle" class="actor-label">Admin hệ thống</text><circle cx="120" cy="389" r="16" class="actor"/>
<line x1="120" y1="405" x2="120" y2="441" class="actor"/>
<line x1="90" y1="419" x2="150" y2="419" class="actor"/>
<line x1="120" y1="441" x2="94" y2="477" class="actor"/>
<line x1="120" y1="441" x2="146" y2="477" class="actor"/>
<text x="120" y="457" text-anchor="middle" class="actor-label">Chủ doanh nghiệp</text><circle cx="120" cy="652" r="16" class="actor"/>
<line x1="120" y1="668" x2="120" y2="704" class="actor"/>
<line x1="90" y1="682" x2="150" y2="682" class="actor"/>
<line x1="120" y1="704" x2="94" y2="740" class="actor"/>
<line x1="120" y1="704" x2="146" y2="740" class="actor"/>
<text x="120" y="720" text-anchor="middle" class="actor-label">Nhân viên CSKH</text><circle cx="1560" cy="126" r="16" class="actor"/>
<line x1="1560" y1="142" x2="1560" y2="178" class="actor"/>
<line x1="1530" y1="156" x2="1590" y2="156" class="actor"/>
<line x1="1560" y1="178" x2="1534" y2="214" class="actor"/>
<line x1="1560" y1="178" x2="1586" y2="214" class="actor"/>
<text x="1560" y="194" text-anchor="middle" class="actor-label">Khách hàng</text><rect x="1506" y="383" width="108" height="54" rx="8" class="external-box"/>
<text x="1560" y="414" text-anchor="middle" class="external-icon">API</text>
<text x="1560" y="457" text-anchor="middle" class="actor-label">Nền tảng ngoài</text><rect x="1506" y="646" width="108" height="54" rx="8" class="external-box"/>
<text x="1560" y="677" text-anchor="middle" class="external-icon">API</text>
<text x="1560" y="720" text-anchor="middle" class="actor-label">Dịch vụ AI/Vector</text>
<text x="1560" y="738" text-anchor="middle" class="actor-label">DB</text>
<ellipse cx="509.0" cy="213.0" rx="135.0" ry="39.0" class="usecase"/>
<text x="509.0" y="218.0" text-anchor="middle" class="usecase-label">Đăng ký / đăng nhập</text><ellipse cx="840.0" cy="213.0" rx="135.0" ry="39.0" class="usecase"/>
<text x="840.0" y="209.0" text-anchor="middle" class="usecase-label">Quản lý hồ sơ doanh</text>
<text x="840.0" y="227.0" text-anchor="middle" class="usecase-label">nghiệp</text><ellipse cx="1171.0" cy="213.0" rx="135.0" ry="39.0" class="usecase"/>
<text x="1171.0" y="218.0" text-anchor="middle" class="usecase-label">Quản lý kênh kết nối</text><ellipse cx="509.0" cy="317.0" rx="135.0" ry="39.0" class="usecase"/>
<text x="509.0" y="322.0" text-anchor="middle" class="usecase-label">Tạo và quản lý widget</text><ellipse cx="840.0" cy="317.0" rx="135.0" ry="39.0" class="usecase"/>
<text x="840.0" y="313.0" text-anchor="middle" class="usecase-label">Quản lý sản phẩm / tri</text>
<text x="840.0" y="331.0" text-anchor="middle" class="usecase-label">thức AI</text><ellipse cx="1171.0" cy="317.0" rx="135.0" ry="39.0" class="usecase"/>
<text x="1171.0" y="313.0" text-anchor="middle" class="usecase-label">Quản lý hội thoại đa</text>
<text x="1171.0" y="331.0" text-anchor="middle" class="usecase-label">kênh</text><ellipse cx="509.0" cy="421.0" rx="135.0" ry="39.0" class="usecase"/>
<text x="509.0" y="426.0" text-anchor="middle" class="usecase-label">Gửi tin nhắn và file</text><ellipse cx="840.0" cy="421.0" rx="135.0" ry="39.0" class="usecase"/>
<text x="840.0" y="426.0" text-anchor="middle" class="usecase-label">AI tự động trả lời khách</text><ellipse cx="1171.0" cy="421.0" rx="135.0" ry="39.0" class="usecase"/>
<text x="1171.0" y="426.0" text-anchor="middle" class="usecase-label">Trợ lý AI nội bộ</text><ellipse cx="509.0" cy="525.0" rx="135.0" ry="39.0" class="usecase"/>
<text x="509.0" y="530.0" text-anchor="middle" class="usecase-label">Quản lý nhân viên</text><ellipse cx="840.0" cy="525.0" rx="135.0" ry="39.0" class="usecase"/>
<text x="840.0" y="521.0" text-anchor="middle" class="usecase-label">Cấu hình và xử lý phân</text>
<text x="840.0" y="539.0" text-anchor="middle" class="usecase-label">công</text><ellipse cx="1171.0" cy="525.0" rx="135.0" ry="39.0" class="usecase"/>
<text x="1171.0" y="530.0" text-anchor="middle" class="usecase-label">Quản lý nhãn khách hàng</text><ellipse cx="509.0" cy="629.0" rx="135.0" ry="39.0" class="usecase"/>
<text x="509.0" y="625.0" text-anchor="middle" class="usecase-label">Quản lý mẫu trả lời</text>
<text x="509.0" y="643.0" text-anchor="middle" class="usecase-label">nhanh</text><ellipse cx="840.0" cy="629.0" rx="135.0" ry="39.0" class="usecase"/>
<text x="840.0" y="625.0" text-anchor="middle" class="usecase-label">Xem thống kê doanh</text>
<text x="840.0" y="643.0" text-anchor="middle" class="usecase-label">nghiệp</text><ellipse cx="1171.0" cy="629.0" rx="135.0" ry="39.0" class="usecase"/>
<text x="1171.0" y="634.0" text-anchor="middle" class="usecase-label">Quản trị toàn hệ thống</text>
</svg>
